{
  "asset": {
    "version": "2.0",
    "generator": "Sketchup glTF Exporter v1.2.6 by Centaur"
  },
  "scene": 0,
  "scenes": [
    {
      "nodes": [
        0
      ]
    }
  ],
  "samplers": [
    {
    }
  ],
  "nodes": [
    {
      "name": "root",
      "children": [
        1
      ]
    },
    {
      "name": "Chris",
      "mesh": 0
    }
  ],
  "materials": [
    {
      "pbrMetallicRoughness": {
        "baseColorFactor": [
          0.017,
          0.0152,
          0.0303,
          1.0
        ],
        "metallicFactor": 0.1,
        "roughnessFactor": 0.9
      },
      "name": "Chris_Shirt",
      "doubleSided": true
    },
    {
      "pbrMetallicRoughness": {
        "baseColorFactor": [
          0.005,
          0.0046,
          0.0046,
          1.0
        ],
        "metallicFactor": 0.1,
        "roughnessFactor": 0.9
      },
      "name": "Chris_Shoe",
      "doubleSided": true
    },
    {
      "pbrMetallicRoughness": {
        "baseColorFactor": [
          0.5356,
          0.3787,
          0.1734,
          1.0
        ],
        "metallicFactor": 0.1,
        "roughnessFactor": 0.9
      },
      "name": "Chris_Skin",
      "doubleSided": true
    },
    {
      "pbrMetallicRoughness": {
        "baseColorFactor": [
          0.2011,
          0.1835,
          0.1835,
          1.0
        ],
        "metallicFactor": 0.1,
        "roughnessFactor": 0.9
      },
      "name": "Chris_Shoe_Sole",
      "doubleSided": true
    },
    {
      "pbrMetallicRoughness": {
        "baseColorFactor": [
          0.06,
          0.0697,
          0.0658,
          1.0
        ],
        "metallicFactor": 0.1,
        "roughnessFactor": 0.9
      },
      "name": "Chris_Hair",
      "doubleSided": true
    },
    {
      "pbrMetallicRoughness": {
        "baseColorFactor": [
          0.1636,
          0.1275,
          0.0658,
          1.0
        ],
        "metallicFactor": 0.1,
        "roughnessFactor": 0.9
      },
      "name": "Chris_Pants",
      "doubleSided": true
    }
  ],
  "meshes": [
    {
      "primitives": [
        {
          "attributes": {
            "POSITION": 0,
            "NORMAL": 1
          },
          "indices": 2,
          "mode": 4,
          "material": 0
        },
        {
          "attributes": {
            "POSITION": 0,
            "NORMAL": 1
          },
          "indices": 3,
          "mode": 4,
          "material": 1
        },
        {
          "attributes": {
            "POSITION": 0,
            "NORMAL": 1
          },
          "indices": 4,
          "mode": 4,
          "material": 2
        },
        {
          "attributes": {
            "POSITION": 0,
            "NORMAL": 1
          },
          "indices": 5,
          "mode": 4,
          "material": 3
        },
        {
          "attributes": {
            "POSITION": 0,
            "NORMAL": 1
          },
          "indices": 6,
          "mode": 4,
          "material": 4
        },
        {
          "attributes": {
            "POSITION": 0,
            "NORMAL": 1
          },
          "indices": 7,
          "mode": 4,
          "material": 5
        }
      ]
    }
  ],
  "accessors": [
    {
      "bufferView": 0,
      "componentType": 5126,
      "count": 1036,
      "type": "VEC3",
      "min": [
        0.31050941409551464,
        -1.2468373460962084e-05,
        -0.5706207903216663
      ],
      "max": [
        0.7924052229708856,
        1.7651679604582,
        -0.24933105515846676
      ]
    },
    {
      "bufferView": 1,
      "componentType": 5126,
      "count": 1036,
      "type": "VEC3",
      "min": [
        0.5547309475586943,
        -1.0302407658353011e-07,
        0.8320296843215268
      ],
      "max": [
        0.5547311100053974,
        1.0914186196370444e-10,
        0.832029792628018
      ]
    },
    {
      "bufferView": 2,
      "componentType": 5123,
      "count": 1005,
      "type": "SCALAR"
    },
    {
      "bufferView": 2,
      "componentType": 5123,
      "count": 168,
      "type": "SCALAR",
      "byteOffset": 2010
    },
    {
      "bufferView": 2,
      "componentType": 5123,
      "count": 912,
      "type": "SCALAR",
      "byteOffset": 2346
    },
    {
      "bufferView": 2,
      "componentType": 5123,
      "count": 168,
      "type": "SCALAR",
      "byteOffset": 4170
    },
    {
      "bufferView": 2,
      "componentType": 5123,
      "count": 258,
      "type": "SCALAR",
      "byteOffset": 4506
    },
    {
      "bufferView": 2,
      "componentType": 5123,
      "count": 411,
      "type": "SCALAR",
      "byteOffset": 5022
    }
  ],
  "bufferViews": [
    {
      "buffer": 0,
      "byteLength": 12432,
      "target": 34962,
      "byteStride": 12
    },
    {
      "buffer": 0,
      "byteOffset": 12432,
      "byteLength": 12432,
      "target": 34962,
      "byteStride": 12
    },
    {
      "buffer": 0,
      "byteOffset": 24864,
      "byteLength": 5844,
      "target": 34963
    }
  ],
  "buffers": [
    {
      "uri": "data:application/octet-stream;base64,",
      "byteLength": 30708
    }
  ]
}